<?xml version="1.0" encoding="UTF-8"?>
<svg version="1.1" viewBox="0 0 1906 2048" width="2784" height="2991" xmlns="http://www.w3.org/2000/svg">
<path transform="translate(1476,240)" d="m0 0 4 2 38 28 20 15 19 14 12 9 19 14 16 12 38 28 21 16 14 10 21 16 10 7 15 10 10 8 14 12 21 21 7 8 11 13 13 17 12 16 16 24 13 21 13 23 14 27 13 29 11 29 8 28 5 25 1 8v72l-4 258-4 249-1 62-2 25-5 29-7 26-9 25-14 29-10 17-11 16-10 13-12 14-23 23-11 9-13 10-15 10-20 12-19 14-18 13-19 14-18 13-38 28-36 26-38 28-18 13-19 14-18 13-19 14-18 13-19 14-18 13-19 14-18 13-19 14-18 13-19 14-18 13-19 14-20 14-21 13-16 9-23 12-25 11-30 11-31 9-26 6-31 5-31 3h-64l-43-3-36-4-39-6-33-7-26-7-23-8-37-17-36-16-41-19-36-16-26-12-2-2-7-351-3-145v-45l5 2 39 20 40 20 33 15 35 15 36 14 36 13 38 12 41 11 36 8 35 6 34 4 31 2h39l29-2 30-4 29-6 28-8 22-8 25-11 19-10 18-11 16-11 14-11 13-11 10-9 21-21 9-11 11-13 13-18 12-18 12-20 12-22 15-31 14-35 13-38 10-36 9-39 6-33 6-46 2-27-3-652z" fill="rgb(118, 255, 159)"/>
<path transform="translate(971,1)" d="m0 0h52l31 4 27 6 23 7 27 11 20 13 61 40 61 40 87 57v464l-16-8-46-24-29-14-33-15-25-11-39-16-49-18-40-13-43-12-39-9-38-7-37-5-23-2-20-1h-43l-30 2-37 5-31 7-28 8-29 11-33 16-17 10-21 14-17 13-13 11-10 9-24 24-9 11-11 13-13 18-10 15-11 18-10 18-12 23-11 25-12 31-11 34-8 30-7 34-3 25-1 15-1 930-5-2-26-15-25-15-26-15-29-17-27-16-26-15-109-64-23-14-17-13-13-11-15-14-9-10-10-12-13-18-9-15-9-16-11-26-8-24-6-27-3-22-1-15v-795l2-25 5-29 7-26 9-25 15-31 11-18 12-17 8-10 12-14 21-21 11-9 17-13 17-11 18-10 46-25 24-13 23-13 23-12 23-13 32-17 22-12 24-13 23-13 23-12 23-13 34-18 23-13 32-17 22-12 24-13 23-13 23-12 23-13 32-17 22-12 24-13 23-13 23-12 23-13 34-18 19-10 17-8 27-10 26-7 28-5z" fill="rgb(118, 255, 159)"/>
<path transform="translate(956,686)" d="m0 0h2l86 215 211 1-5 5-30 26-14 12-15 13-14 12-15 13-14 12-30 26-28 24-5 4 1 9 24 90 26 98-1 2-17-11-88-57-20-13-25-16-26-17-3-1-28 19-43 29-44 29-43 29-29 19-2-1 19-63 14-47 32-107 1-2-4-2-56-44-18-14-84-66-12-9v-1l211-1 11-28 43-107z" fill="rgb(118, 255, 159)"/>
</svg>
