<?xml version="1.0" standalone="no"?>
<!DOCTYPE svg PUBLIC "-//W3C//DTD SVG 20010904//EN"
 "http://www.w3.org/TR/2001/REC-SVG-20010904/DTD/svg10.dtd">
<svg version="1.0" xmlns="http://www.w3.org/2000/svg"
 width="2784.000000pt" height="2991.000000pt" viewBox="0 0 2784.000000 2991.000000"
 preserveAspectRatio="xMidYMid meet">

<g transform="translate(0.000000,2991.000000) scale(0.100000,-0.100000)"
fill="#49c0a2" stroke="none">
<path d="M14215 29889 c-611 -48 -1229 -218 -1755 -482 -258 -130 -10227
-5558 -10360 -5641 -443 -278 -851 -648 -1170 -1061 -462 -597 -769 -1326
-879 -2085 -48 -331 -46 -48 -46 -6265 0 -5587 1 -5857 18 -6015 35 -319 99
-620 188 -890 295 -896 880 -1662 1659 -2172 100 -66 4214 -2482 4247 -2495
10 -4 13 1406 16 6813 2 5293 6 6845 15 6934 39 369 78 595 157 916 395 1616
1153 2973 2170 3883 2142 1917 5362 1959 9505 123 543 -241 1517 -719 1848
-909 l42 -24 0 3383 -1 3383 -1655 1085 c-911 597 -1675 1095 -1697 1107 -73
40 -387 160 -542 208 -353 110 -709 177 -1085 205 -154 11 -527 11 -675 -1z"/>
<path d="M21563 25335 c4 -594 16 -3168 28 -5720 25 -5134 27 -4741 -37 -5259
-130 -1052 -399 -2077 -776 -2961 -660 -1547 -1622 -2642 -2868 -3265 -617
-309 -1265 -488 -2050 -566 -222 -22 -816 -30 -1075 -15 -1441 84 -3001 521
-4800 1343 -294 135 -987 477 -1265 626 -113 60 -206 109 -207 108 -1 0 34
-1765 78 -3921 43 -2156 79 -3936 79 -3956 l0 -36 1268 -576 c1433 -651 1320
-601 1472 -655 585 -209 1463 -367 2415 -437 818 -59 1352 -44 1961 55 982
160 1930 533 2753 1082 75 50 1639 1188 3476 2528 1907 1392 3383 2462 3440
2495 213 122 429 273 630 439 154 127 444 417 571 571 644 779 1000 1724 1030
2735 14 490 145 9078 139 9180 -56 1061 -914 2797 -1965 3975 -251 282 -582
578 -820 734 -82 54 -3335 2459 -3469 2565 -12 9 -13 -140 -8 -1069z"/>
<path d="M13343 18322 l-631 -1577 -1543 -5 -1542 -5 1249 -980 c687 -539
1258 -989 1270 -1000 l22 -20 -479 -1595 c-263 -877 -478 -1599 -479 -1603 0
-4 623 408 1384 916 l1384 924 1303 -843 c716 -464 1304 -843 1305 -841 1 1
-169 646 -378 1434 -209 788 -378 1439 -375 1447 3 8 566 497 1251 1088 l1245
1073 -1542 3 -1542 2 -619 1545 c-341 850 -627 1561 -635 1580 l-16 34 -632
-1577z"/>
</g>
</svg>
